<?xml version="1.0" encoding="utf-8" standalone="no"?>
<!DOCTYPE svg PUBLIC "-//W3C//DTD SVG 1.1//EN"
  "http://www.w3.org/Graphics/SVG/1.1/DTD/svg11.dtd">
<svg xmlns:xlink="http://www.w3.org/1999/xlink" width="720pt" height="432pt" viewBox="0 0 720 432" xmlns="http://www.w3.org/2000/svg" version="1.1">
 <metadata>
  <rdf:RDF xmlns:dc="http://purl.org/dc/elements/1.1/" xmlns:cc="http://creativecommons.org/ns#" xmlns:rdf="http://www.w3.org/1999/02/22-rdf-syntax-ns#">
   <cc:Work>
    <dc:type rdf:resource="http://purl.org/dc/dcmitype/StillImage"/>
    <dc:date>2026-01-24T15:57:07.141625</dc:date>
    <dc:format>image/svg+xml</dc:format>
    <dc:creator>
     <cc:Agent>
      <dc:title>Matplotlib v3.10.0, https://matplotlib.org/</dc:title>
     </cc:Agent>
    </dc:creator>
   </cc:Work>
  </rdf:RDF>
 </metadata>
 <defs>
  <style type="text/css">*{stroke-linejoin: round; stroke-linecap: butt}</style>
 </defs>
 <g id="figure_1">
  <g id="patch_1">
   <path d="M 0 432 
L 720 432 
L 720 0 
L 0 0 
z
" style="fill: #ffffff"/>
  </g>
  <g id="axes_1">
   <g id="patch_2">
    <path d="M 57.8 367 
L 708.219986 367 
L 708.219986 32.4 
L 57.8 32.4 
z
" style="fill: #ffffff"/>
   </g>
   <g id="matplotlib.axis_1">
    <g id="xtick_1">
     <g id="line2d_1">
      <defs>
       <path id="me9c7b2ba76" d="M 0 0 
L 0 3.5 
" style="stroke: #000000; stroke-width: 0.8"/>
      </defs>
      <g>
       <use xlink:href="#me9c7b2ba76" x="102.971407" y="367" style="stroke: #000000; stroke-width: 0.8"/>
      </g>
     </g>
     <g id="text_1">
      <!-- 0.5 -->
      <g transform="translate(95.019845 381.598438) scale(0.1 -0.1)">
       <defs>
        <path id="DejaVuSans-30" d="M 2034 4250 
Q 1547 4250 1301 3770 
Q 1056 3291 1056 2328 
Q 1056 1369 1301 889 
Q 1547 409 2034 409 
Q 2525 409 2770 889 
Q 3016 1369 3016 2328 
Q 3016 3291 2770 3770 
Q 2525 4250 2034 4250 
z
M 2034 4750 
Q 2819 4750 3233 4129 
Q 3647 3509 3647 2328 
Q 3647 1150 3233 529 
Q 2819 -91 2034 -91 
Q 1250 -91 836 529 
Q 422 1150 422 2328 
Q 422 3509 836 4129 
Q 1250 4750 2034 4750 
z
" transform="scale(0.015625)"/>
        <path id="DejaVuSans-2e" d="M 684 794 
L 1344 794 
L 1344 0 
L 684 0 
L 684 794 
z
" transform="scale(0.015625)"/>
        <path id="DejaVuSans-35" d="M 691 4666 
L 3169 4666 
L 3169 4134 
L 1269 4134 
L 1269 2991 
Q 1406 3038 1543 3061 
Q 1681 3084 1819 3084 
Q 2600 3084 3056 2656 
Q 3513 2228 3513 1497 
Q 3513 744 3044 326 
Q 2575 -91 1722 -91 
Q 1428 -91 1123 -41 
Q 819 9 494 109 
L 494 744 
Q 775 591 1075 516 
Q 1375 441 1709 441 
Q 2250 441 2565 725 
Q 2881 1009 2881 1497 
Q 2881 1984 2565 2268 
Q 2250 2553 1709 2553 
Q 1456 2553 1204 2497 
Q 953 2441 691 2322 
L 691 4666 
z
" transform="scale(0.015625)"/>
       </defs>
       <use xlink:href="#DejaVuSans-30"/>
       <use xlink:href="#DejaVuSans-2e" transform="translate(63.623047 0)"/>
       <use xlink:href="#DejaVuSans-35" transform="translate(95.410156 0)"/>
      </g>
     </g>
    </g>
    <g id="xtick_2">
     <g id="line2d_2">
      <g>
       <use xlink:href="#me9c7b2ba76" x="202.506673" y="367" style="stroke: #000000; stroke-width: 0.8"/>
      </g>
     </g>
     <g id="text_2">
      <!-- 1.0 -->
      <g transform="translate(194.555111 381.598438) scale(0.1 -0.1)">
       <defs>
        <path id="DejaVuSans-31" d="M 794 531 
L 1825 531 
L 1825 4091 
L 703 3866 
L 703 4441 
L 1819 4666 
L 2450 4666 
L 2450 531 
L 3481 531 
L 3481 0 
L 794 0 
L 794 531 
z
" transform="scale(0.015625)"/>
       </defs>
       <use xlink:href="#DejaVuSans-31"/>
       <use xlink:href="#DejaVuSans-2e" transform="translate(63.623047 0)"/>
       <use xlink:href="#DejaVuSans-30" transform="translate(95.410156 0)"/>
      </g>
     </g>
    </g>
    <g id="xtick_3">
     <g id="line2d_3">
      <g>
       <use xlink:href="#me9c7b2ba76" x="302.041939" y="367" style="stroke: #000000; stroke-width: 0.8"/>
      </g>
     </g>
     <g id="text_3">
      <!-- 1.5 -->
      <g transform="translate(294.090376 381.598438) scale(0.1 -0.1)">
       <use xlink:href="#DejaVuSans-31"/>
       <use xlink:href="#DejaVuSans-2e" transform="translate(63.623047 0)"/>
       <use xlink:href="#DejaVuSans-35" transform="translate(95.410156 0)"/>
      </g>
     </g>
    </g>
    <g id="xtick_4">
     <g id="line2d_4">
      <g>
       <use xlink:href="#me9c7b2ba76" x="401.577205" y="367" style="stroke: #000000; stroke-width: 0.8"/>
      </g>
     </g>
     <g id="text_4">
      <!-- 2.0 -->
      <g transform="translate(393.625642 381.598438) scale(0.1 -0.1)">
       <defs>
        <path id="DejaVuSans-32" d="M 1228 531 
L 3431 531 
L 3431 0 
L 469 0 
L 469 531 
Q 828 903 1448 1529 
Q 2069 2156 2228 2338 
Q 2531 2678 2651 2914 
Q 2772 3150 2772 3378 
Q 2772 3750 2511 3984 
Q 2250 4219 1831 4219 
Q 1534 4219 1204 4116 
Q 875 4013 500 3803 
L 500 4441 
Q 881 4594 1212 4672 
Q 1544 4750 1819 4750 
Q 2544 4750 2975 4387 
Q 3406 4025 3406 3419 
Q 3406 3131 3298 2873 
Q 3191 2616 2906 2266 
Q 2828 2175 2409 1742 
Q 1991 1309 1228 531 
z
" transform="scale(0.015625)"/>
       </defs>
       <use xlink:href="#DejaVuSans-32"/>
       <use xlink:href="#DejaVuSans-2e" transform="translate(63.623047 0)"/>
       <use xlink:href="#DejaVuSans-30" transform="translate(95.410156 0)"/>
      </g>
     </g>
    </g>
    <g id="xtick_5">
     <g id="line2d_5">
      <g>
       <use xlink:href="#me9c7b2ba76" x="501.112471" y="367" style="stroke: #000000; stroke-width: 0.8"/>
      </g>
     </g>
     <g id="text_5">
      <!-- 2.5 -->
      <g transform="translate(493.160908 381.598438) scale(0.1 -0.1)">
       <use xlink:href="#DejaVuSans-32"/>
       <use xlink:href="#DejaVuSans-2e" transform="translate(63.623047 0)"/>
       <use xlink:href="#DejaVuSans-35" transform="translate(95.410156 0)"/>
      </g>
     </g>
    </g>
    <g id="xtick_6">
     <g id="line2d_6">
      <g>
       <use xlink:href="#me9c7b2ba76" x="600.647737" y="367" style="stroke: #000000; stroke-width: 0.8"/>
      </g>
     </g>
     <g id="text_6">
      <!-- 3.0 -->
      <g transform="translate(592.696174 381.598438) scale(0.1 -0.1)">
       <defs>
        <path id="DejaVuSans-33" d="M 2597 2516 
Q 3050 2419 3304 2112 
Q 3559 1806 3559 1356 
Q 3559 666 3084 287 
Q 2609 -91 1734 -91 
Q 1441 -91 1130 -33 
Q 819 25 488 141 
L 488 750 
Q 750 597 1062 519 
Q 1375 441 1716 441 
Q 2309 441 2620 675 
Q 2931 909 2931 1356 
Q 2931 1769 2642 2001 
Q 2353 2234 1838 2234 
L 1294 2234 
L 1294 2753 
L 1863 2753 
Q 2328 2753 2575 2939 
Q 2822 3125 2822 3475 
Q 2822 3834 2567 4026 
Q 2313 4219 1838 4219 
Q 1578 4219 1281 4162 
Q 984 4106 628 3988 
L 628 4550 
Q 988 4650 1302 4700 
Q 1616 4750 1894 4750 
Q 2613 4750 3031 4423 
Q 3450 4097 3450 3541 
Q 3450 3153 3228 2886 
Q 3006 2619 2597 2516 
z
" transform="scale(0.015625)"/>
       </defs>
       <use xlink:href="#DejaVuSans-33"/>
       <use xlink:href="#DejaVuSans-2e" transform="translate(63.623047 0)"/>
       <use xlink:href="#DejaVuSans-30" transform="translate(95.410156 0)"/>
      </g>
     </g>
    </g>
    <g id="xtick_7">
     <g id="line2d_7">
      <g>
       <use xlink:href="#me9c7b2ba76" x="700.183003" y="367" style="stroke: #000000; stroke-width: 0.8"/>
      </g>
     </g>
     <g id="text_7">
      <!-- 3.5 -->
      <g transform="translate(692.23144 381.598438) scale(0.1 -0.1)">
       <use xlink:href="#DejaVuSans-33"/>
       <use xlink:href="#DejaVuSans-2e" transform="translate(63.623047 0)"/>
       <use xlink:href="#DejaVuSans-35" transform="translate(95.410156 0)"/>
      </g>
     </g>
    </g>
    <g id="text_8">
     <!-- Predicted / True Latency -->
     <g transform="translate(262.403743 402.875) scale(0.2 -0.2)">
      <defs>
       <path id="DejaVuSans-50" d="M 1259 4147 
L 1259 2394 
L 2053 2394 
Q 2494 2394 2734 2622 
Q 2975 2850 2975 3272 
Q 2975 3691 2734 3919 
Q 2494 4147 2053 4147 
L 1259 4147 
z
M 628 4666 
L 2053 4666 
Q 2838 4666 3239 4311 
Q 3641 3956 3641 3272 
Q 3641 2581 3239 2228 
Q 2838 1875 2053 1875 
L 1259 1875 
L 1259 0 
L 628 0 
L 628 4666 
z
" transform="scale(0.015625)"/>
       <path id="DejaVuSans-72" d="M 2631 2963 
Q 2534 3019 2420 3045 
Q 2306 3072 2169 3072 
Q 1681 3072 1420 2755 
Q 1159 2438 1159 1844 
L 1159 0 
L 581 0 
L 581 3500 
L 1159 3500 
L 1159 2956 
Q 1341 3275 1631 3429 
Q 1922 3584 2338 3584 
Q 2397 3584 2469 3576 
Q 2541 3569 2628 3553 
L 2631 2963 
z
" transform="scale(0.015625)"/>
       <path id="DejaVuSans-65" d="M 3597 1894 
L 3597 1613 
L 953 1613 
Q 991 1019 1311 708 
Q 1631 397 2203 397 
Q 2534 397 2845 478 
Q 3156 559 3463 722 
L 3463 178 
Q 3153 47 2828 -22 
Q 2503 -91 2169 -91 
Q 1331 -91 842 396 
Q 353 884 353 1716 
Q 353 2575 817 3079 
Q 1281 3584 2069 3584 
Q 2775 3584 3186 3129 
Q 3597 2675 3597 1894 
z
M 3022 2063 
Q 3016 2534 2758 2815 
Q 2500 3097 2075 3097 
Q 1594 3097 1305 2825 
Q 1016 2553 972 2059 
L 3022 2063 
z
" transform="scale(0.015625)"/>
       <path id="DejaVuSans-64" d="M 2906 2969 
L 2906 4863 
L 3481 4863 
L 3481 0 
L 2906 0 
L 2906 525 
Q 2725 213 2448 61 
Q 2172 -91 1784 -91 
Q 1150 -91 751 415 
Q 353 922 353 1747 
Q 353 2572 751 3078 
Q 1150 3584 1784 3584 
Q 2172 3584 2448 3432 
Q 2725 3281 2906 2969 
z
M 947 1747 
Q 947 1113 1208 752 
Q 1469 391 1925 391 
Q 2381 391 2643 752 
Q 2906 1113 2906 1747 
Q 2906 2381 2643 2742 
Q 2381 3103 1925 3103 
Q 1469 3103 1208 2742 
Q 947 2381 947 1747 
z
" transform="scale(0.015625)"/>
       <path id="DejaVuSans-69" d="M 603 3500 
L 1178 3500 
L 1178 0 
L 603 0 
L 603 3500 
z
M 603 4863 
L 1178 4863 
L 1178 4134 
L 603 4134 
L 603 4863 
z
" transform="scale(0.015625)"/>
       <path id="DejaVuSans-63" d="M 3122 3366 
L 3122 2828 
Q 2878 2963 2633 3030 
Q 2388 3097 2138 3097 
Q 1578 3097 1268 2742 
Q 959 2388 959 1747 
Q 959 1106 1268 751 
Q 1578 397 2138 397 
Q 2388 397 2633 464 
Q 2878 531 3122 666 
L 3122 134 
Q 2881 22 2623 -34 
Q 2366 -91 2075 -91 
Q 1284 -91 818 406 
Q 353 903 353 1747 
Q 353 2603 823 3093 
Q 1294 3584 2113 3584 
Q 2378 3584 2631 3529 
Q 2884 3475 3122 3366 
z
" transform="scale(0.015625)"/>
       <path id="DejaVuSans-74" d="M 1172 4494 
L 1172 3500 
L 2356 3500 
L 2356 3053 
L 1172 3053 
L 1172 1153 
Q 1172 725 1289 603 
Q 1406 481 1766 481 
L 2356 481 
L 2356 0 
L 1766 0 
Q 1100 0 847 248 
Q 594 497 594 1153 
L 594 3053 
L 172 3053 
L 172 3500 
L 594 3500 
L 594 4494 
L 1172 4494 
z
" transform="scale(0.015625)"/>
       <path id="DejaVuSans-20" transform="scale(0.015625)"/>
       <path id="DejaVuSans-2f" d="M 1625 4666 
L 2156 4666 
L 531 -594 
L 0 -594 
L 1625 4666 
z
" transform="scale(0.015625)"/>
       <path id="DejaVuSans-54" d="M -19 4666 
L 3928 4666 
L 3928 4134 
L 2272 4134 
L 2272 0 
L 1638 0 
L 1638 4134 
L -19 4134 
L -19 4666 
z
" transform="scale(0.015625)"/>
       <path id="DejaVuSans-75" d="M 544 1381 
L 544 3500 
L 1119 3500 
L 1119 1403 
Q 1119 906 1312 657 
Q 1506 409 1894 409 
Q 2359 409 2629 706 
Q 2900 1003 2900 1516 
L 2900 3500 
L 3475 3500 
L 3475 0 
L 2900 0 
L 2900 538 
Q 2691 219 2414 64 
Q 2138 -91 1772 -91 
Q 1169 -91 856 284 
Q 544 659 544 1381 
z
M 1991 3584 
L 1991 3584 
z
" transform="scale(0.015625)"/>
       <path id="DejaVuSans-4c" d="M 628 4666 
L 1259 4666 
L 1259 531 
L 3531 531 
L 3531 0 
L 628 0 
L 628 4666 
z
" transform="scale(0.015625)"/>
       <path id="DejaVuSans-61" d="M 2194 1759 
Q 1497 1759 1228 1600 
Q 959 1441 959 1056 
Q 959 750 1161 570 
Q 1363 391 1709 391 
Q 2188 391 2477 730 
Q 2766 1069 2766 1631 
L 2766 1759 
L 2194 1759 
z
M 3341 1997 
L 3341 0 
L 2766 0 
L 2766 531 
Q 2569 213 2275 61 
Q 1981 -91 1556 -91 
Q 1019 -91 701 211 
Q 384 513 384 1019 
Q 384 1609 779 1909 
Q 1175 2209 1959 2209 
L 2766 2209 
L 2766 2266 
Q 2766 2663 2505 2880 
Q 2244 3097 1772 3097 
Q 1472 3097 1187 3025 
Q 903 2953 641 2809 
L 641 3341 
Q 956 3463 1253 3523 
Q 1550 3584 1831 3584 
Q 2591 3584 2966 3190 
Q 3341 2797 3341 1997 
z
" transform="scale(0.015625)"/>
       <path id="DejaVuSans-6e" d="M 3513 2113 
L 3513 0 
L 2938 0 
L 2938 2094 
Q 2938 2591 2744 2837 
Q 2550 3084 2163 3084 
Q 1697 3084 1428 2787 
Q 1159 2491 1159 1978 
L 1159 0 
L 581 0 
L 581 3500 
L 1159 3500 
L 1159 2956 
Q 1366 3272 1645 3428 
Q 1925 3584 2291 3584 
Q 2894 3584 3203 3211 
Q 3513 2838 3513 2113 
z
" transform="scale(0.015625)"/>
       <path id="DejaVuSans-79" d="M 2059 -325 
Q 1816 -950 1584 -1140 
Q 1353 -1331 966 -1331 
L 506 -1331 
L 506 -850 
L 844 -850 
Q 1081 -850 1212 -737 
Q 1344 -625 1503 -206 
L 1606 56 
L 191 3500 
L 800 3500 
L 1894 763 
L 2988 3500 
L 3597 3500 
L 2059 -325 
z
" transform="scale(0.015625)"/>
      </defs>
      <use xlink:href="#DejaVuSans-50"/>
      <use xlink:href="#DejaVuSans-72" transform="translate(58.552734 0)"/>
      <use xlink:href="#DejaVuSans-65" transform="translate(97.416016 0)"/>
      <use xlink:href="#DejaVuSans-64" transform="translate(158.939453 0)"/>
      <use xlink:href="#DejaVuSans-69" transform="translate(222.416016 0)"/>
      <use xlink:href="#DejaVuSans-63" transform="translate(250.199219 0)"/>
      <use xlink:href="#DejaVuSans-74" transform="translate(305.179688 0)"/>
      <use xlink:href="#DejaVuSans-65" transform="translate(344.388672 0)"/>
      <use xlink:href="#DejaVuSans-64" transform="translate(405.912109 0)"/>
      <use xlink:href="#DejaVuSans-20" transform="translate(469.388672 0)"/>
      <use xlink:href="#DejaVuSans-2f" transform="translate(501.175781 0)"/>
      <use xlink:href="#DejaVuSans-20" transform="translate(534.867188 0)"/>
      <use xlink:href="#DejaVuSans-54" transform="translate(566.654297 0)"/>
      <use xlink:href="#DejaVuSans-72" transform="translate(612.988281 0)"/>
      <use xlink:href="#DejaVuSans-75" transform="translate(654.101562 0)"/>
      <use xlink:href="#DejaVuSans-65" transform="translate(717.480469 0)"/>
      <use xlink:href="#DejaVuSans-20" transform="translate(779.003906 0)"/>
      <use xlink:href="#DejaVuSans-4c" transform="translate(810.791016 0)"/>
      <use xlink:href="#DejaVuSans-61" transform="translate(866.503906 0)"/>
      <use xlink:href="#DejaVuSans-74" transform="translate(927.783203 0)"/>
      <use xlink:href="#DejaVuSans-65" transform="translate(966.992188 0)"/>
      <use xlink:href="#DejaVuSans-6e" transform="translate(1028.515625 0)"/>
      <use xlink:href="#DejaVuSans-63" transform="translate(1091.894531 0)"/>
      <use xlink:href="#DejaVuSans-79" transform="translate(1146.875 0)"/>
     </g>
    </g>
   </g>
   <g id="matplotlib.axis_2">
    <g id="ytick_1">
     <g id="line2d_8">
      <defs>
       <path id="m946a561e78" d="M 0 0 
L -3.5 0 
" style="stroke: #000000; stroke-width: 0.8"/>
      </defs>
      <g>
       <use xlink:href="#m946a561e78" x="57.8" y="353.480808" style="stroke: #000000; stroke-width: 0.8"/>
      </g>
     </g>
     <g id="text_9">
      <!-- 0.0 -->
      <g transform="translate(34.896875 357.280027) scale(0.1 -0.1)">
       <use xlink:href="#DejaVuSans-30"/>
       <use xlink:href="#DejaVuSans-2e" transform="translate(63.623047 0)"/>
       <use xlink:href="#DejaVuSans-30" transform="translate(95.410156 0)"/>
      </g>
     </g>
    </g>
    <g id="ytick_2">
     <g id="line2d_9">
      <g>
       <use xlink:href="#m946a561e78" x="57.8" y="292.306465" style="stroke: #000000; stroke-width: 0.8"/>
      </g>
     </g>
     <g id="text_10">
      <!-- 0.2 -->
      <g transform="translate(34.896875 296.105683) scale(0.1 -0.1)">
       <use xlink:href="#DejaVuSans-30"/>
       <use xlink:href="#DejaVuSans-2e" transform="translate(63.623047 0)"/>
       <use xlink:href="#DejaVuSans-32" transform="translate(95.410156 0)"/>
      </g>
     </g>
    </g>
    <g id="ytick_3">
     <g id="line2d_10">
      <g>
       <use xlink:href="#m946a561e78" x="57.8" y="231.132121" style="stroke: #000000; stroke-width: 0.8"/>
      </g>
     </g>
     <g id="text_11">
      <!-- 0.4 -->
      <g transform="translate(34.896875 234.93134) scale(0.1 -0.1)">
       <defs>
        <path id="DejaVuSans-34" d="M 2419 4116 
L 825 1625 
L 2419 1625 
L 2419 4116 
z
M 2253 4666 
L 3047 4666 
L 3047 1625 
L 3713 1625 
L 3713 1100 
L 3047 1100 
L 3047 0 
L 2419 0 
L 2419 1100 
L 313 1100 
L 313 1709 
L 2253 4666 
z
" transform="scale(0.015625)"/>
       </defs>
       <use xlink:href="#DejaVuSans-30"/>
       <use xlink:href="#DejaVuSans-2e" transform="translate(63.623047 0)"/>
       <use xlink:href="#DejaVuSans-34" transform="translate(95.410156 0)"/>
      </g>
     </g>
    </g>
    <g id="ytick_4">
     <g id="line2d_11">
      <g>
       <use xlink:href="#m946a561e78" x="57.8" y="169.957778" style="stroke: #000000; stroke-width: 0.8"/>
      </g>
     </g>
     <g id="text_12">
      <!-- 0.6 -->
      <g transform="translate(34.896875 173.756997) scale(0.1 -0.1)">
       <defs>
        <path id="DejaVuSans-36" d="M 2113 2584 
Q 1688 2584 1439 2293 
Q 1191 2003 1191 1497 
Q 1191 994 1439 701 
Q 1688 409 2113 409 
Q 2538 409 2786 701 
Q 3034 994 3034 1497 
Q 3034 2003 2786 2293 
Q 2538 2584 2113 2584 
z
M 3366 4563 
L 3366 3988 
Q 3128 4100 2886 4159 
Q 2644 4219 2406 4219 
Q 1781 4219 1451 3797 
Q 1122 3375 1075 2522 
Q 1259 2794 1537 2939 
Q 1816 3084 2150 3084 
Q 2853 3084 3261 2657 
Q 3669 2231 3669 1497 
Q 3669 778 3244 343 
Q 2819 -91 2113 -91 
Q 1303 -91 875 529 
Q 447 1150 447 2328 
Q 447 3434 972 4092 
Q 1497 4750 2381 4750 
Q 2619 4750 2861 4703 
Q 3103 4656 3366 4563 
z
" transform="scale(0.015625)"/>
       </defs>
       <use xlink:href="#DejaVuSans-30"/>
       <use xlink:href="#DejaVuSans-2e" transform="translate(63.623047 0)"/>
       <use xlink:href="#DejaVuSans-36" transform="translate(95.410156 0)"/>
      </g>
     </g>
    </g>
    <g id="ytick_5">
     <g id="line2d_12">
      <g>
       <use xlink:href="#m946a561e78" x="57.8" y="108.783434" style="stroke: #000000; stroke-width: 0.8"/>
      </g>
     </g>
     <g id="text_13">
      <!-- 0.8 -->
      <g transform="translate(34.896875 112.582653) scale(0.1 -0.1)">
       <defs>
        <path id="DejaVuSans-38" d="M 2034 2216 
Q 1584 2216 1326 1975 
Q 1069 1734 1069 1313 
Q 1069 891 1326 650 
Q 1584 409 2034 409 
Q 2484 409 2743 651 
Q 3003 894 3003 1313 
Q 3003 1734 2745 1975 
Q 2488 2216 2034 2216 
z
M 1403 2484 
Q 997 2584 770 2862 
Q 544 3141 544 3541 
Q 544 4100 942 4425 
Q 1341 4750 2034 4750 
Q 2731 4750 3128 4425 
Q 3525 4100 3525 3541 
Q 3525 3141 3298 2862 
Q 3072 2584 2669 2484 
Q 3125 2378 3379 2068 
Q 3634 1759 3634 1313 
Q 3634 634 3220 271 
Q 2806 -91 2034 -91 
Q 1263 -91 848 271 
Q 434 634 434 1313 
Q 434 1759 690 2068 
Q 947 2378 1403 2484 
z
M 1172 3481 
Q 1172 3119 1398 2916 
Q 1625 2713 2034 2713 
Q 2441 2713 2670 2916 
Q 2900 3119 2900 3481 
Q 2900 3844 2670 4047 
Q 2441 4250 2034 4250 
Q 1625 4250 1398 4047 
Q 1172 3844 1172 3481 
z
" transform="scale(0.015625)"/>
       </defs>
       <use xlink:href="#DejaVuSans-30"/>
       <use xlink:href="#DejaVuSans-2e" transform="translate(63.623047 0)"/>
       <use xlink:href="#DejaVuSans-38" transform="translate(95.410156 0)"/>
      </g>
     </g>
    </g>
    <g id="ytick_6">
     <g id="line2d_13">
      <g>
       <use xlink:href="#m946a561e78" x="57.8" y="47.609091" style="stroke: #000000; stroke-width: 0.8"/>
      </g>
     </g>
     <g id="text_14">
      <!-- 1.0 -->
      <g transform="translate(34.896875 51.40831) scale(0.1 -0.1)">
       <use xlink:href="#DejaVuSans-31"/>
       <use xlink:href="#DejaVuSans-2e" transform="translate(63.623047 0)"/>
       <use xlink:href="#DejaVuSans-30" transform="translate(95.410156 0)"/>
      </g>
     </g>
    </g>
    <g id="text_15">
     <!-- Frequency -->
     <g transform="translate(26.7375 251.359375) rotate(-90) scale(0.2 -0.2)">
      <defs>
       <path id="DejaVuSans-46" d="M 628 4666 
L 3309 4666 
L 3309 4134 
L 1259 4134 
L 1259 2759 
L 3109 2759 
L 3109 2228 
L 1259 2228 
L 1259 0 
L 628 0 
L 628 4666 
z
" transform="scale(0.015625)"/>
       <path id="DejaVuSans-71" d="M 947 1747 
Q 947 1113 1208 752 
Q 1469 391 1925 391 
Q 2381 391 2643 752 
Q 2906 1113 2906 1747 
Q 2906 2381 2643 2742 
Q 2381 3103 1925 3103 
Q 1469 3103 1208 2742 
Q 947 2381 947 1747 
z
M 2906 525 
Q 2725 213 2448 61 
Q 2172 -91 1784 -91 
Q 1150 -91 751 415 
Q 353 922 353 1747 
Q 353 2572 751 3078 
Q 1150 3584 1784 3584 
Q 2172 3584 2448 3432 
Q 2725 3281 2906 2969 
L 2906 3500 
L 3481 3500 
L 3481 -1331 
L 2906 -1331 
L 2906 525 
z
" transform="scale(0.015625)"/>
      </defs>
      <use xlink:href="#DejaVuSans-46"/>
      <use xlink:href="#DejaVuSans-72" transform="translate(50.269531 0)"/>
      <use xlink:href="#DejaVuSans-65" transform="translate(89.132812 0)"/>
      <use xlink:href="#DejaVuSans-71" transform="translate(150.65625 0)"/>
      <use xlink:href="#DejaVuSans-75" transform="translate(214.132812 0)"/>
      <use xlink:href="#DejaVuSans-65" transform="translate(277.511719 0)"/>
      <use xlink:href="#DejaVuSans-6e" transform="translate(339.035156 0)"/>
      <use xlink:href="#DejaVuSans-63" transform="translate(402.414062 0)"/>
      <use xlink:href="#DejaVuSans-79" transform="translate(457.394531 0)"/>
     </g>
    </g>
   </g>
   <g id="line2d_14">
    <path d="M 202.506673 367 
L 202.506673 32.4 
" clip-path="url(#pa95339d8f8)" style="fill: none; stroke-dasharray: 5.55,2.4; stroke-dashoffset: 0; stroke: #4a4a4a; stroke-width: 1.5"/>
   </g>
   <g id="line2d_15">
    <path d="M 87.858813 351.790909 
L 88.135677 348.411111 
L 88.245191 345.031313 
L 89.221595 341.651515 
L 107.038424 338.271717 
L 126.057834 334.891919 
L 139.129617 331.512121 
L 148.026948 328.132323 
L 149.576104 324.752525 
L 150.122822 323.062626 
L 155.349998 321.372727 
L 155.761569 319.682828 
L 156.065524 317.992929 
L 156.876466 316.30303 
L 157.105368 312.923232 
L 157.178833 311.233333 
L 158.641918 307.853535 
L 159.103237 304.473737 
L 159.64356 302.783838 
L 160.093591 299.40404 
L 160.158246 297.714141 
L 160.536971 296.024242 
L 160.716917 294.334343 
L 161.347328 290.954545 
L 161.587269 289.264646 
L 161.64726 287.574747 
L 161.89559 285.884848 
L 161.934897 282.505051 
L 161.947903 279.125253 
L 161.98133 277.435354 
L 161.98291 275.745455 
L 162.027995 272.365657 
L 162.088072 270.675758 
L 162.123192 268.985859 
L 162.149382 267.29596 
L 162.153845 265.606061 
L 162.25162 263.916162 
L 162.350814 260.536364 
L 162.409571 258.846465 
L 162.451357 257.156566 
L 162.493235 255.466667 
L 162.547794 252.086869 
L 162.572462 248.707071 
L 162.591585 247.017172 
L 162.623169 243.637374 
L 162.624243 241.947475 
L 162.628181 238.567677 
L 162.69252 236.877778 
L 162.753002 233.49798 
L 162.762418 231.808081 
L 162.779375 230.118182 
L 162.796318 228.428283 
L 162.833801 226.738384 
L 162.841181 225.048485 
L 162.866276 223.358586 
L 162.870299 218.288889 
L 162.892588 216.59899 
L 162.919508 214.909091 
L 162.9393 213.219192 
L 162.976884 211.529293 
L 162.991565 209.839394 
L 163.005654 208.149495 
L 163.02506 204.769697 
L 163.037325 203.079798 
L 163.051246 201.389899 
L 163.06633 199.7 
L 163.078207 198.010101 
L 163.081174 196.320202 
L 163.105084 194.630303 
L 163.106007 192.940404 
L 163.127251 191.250505 
L 163.136238 189.560606 
L 163.150026 187.870707 
L 163.166867 186.180808 
L 163.204587 182.80101 
L 163.209468 179.421212 
L 163.214725 176.041414 
L 163.221362 174.351515 
L 163.22342 170.971717 
L 163.236212 167.591919 
L 163.249483 164.212121 
L 163.254438 160.832323 
L 163.274189 157.452525 
L 163.275702 154.072727 
L 163.283033 150.692929 
L 163.290344 147.313131 
L 163.29691 143.933333 
L 163.306213 140.553535 
L 163.312234 137.173737 
L 163.314749 133.793939 
L 163.315743 130.414141 
L 163.316203 127.034343 
L 163.317417 123.654545 
L 163.31955 120.274747 
L 163.321008 116.894949 
L 163.331524 113.515152 
L 163.338014 110.135354 
L 163.338545 106.755556 
L 163.339152 103.375758 
L 163.341362 99.99596 
L 163.356244 96.616162 
L 163.35731 93.236364 
L 163.357769 89.856566 
L 163.366235 86.476768 
L 163.367072 83.09697 
L 163.367233 79.717172 
L 163.382403 76.337374 
L 163.391182 72.957576 
L 163.402703 69.577778 
L 163.405223 66.19798 
L 167.141983 62.818182 
L 179.038896 61.128283 
L 187.888449 59.438384 
L 192.308055 57.748485 
L 192.354726 56.058586 
L 195.154432 54.368687 
L 198.201542 50.988889 
L 384.787017 47.609091 
" clip-path="url(#pa95339d8f8)" style="fill: none; stroke: #8fd694; stroke-width: 1.5; stroke-linecap: square"/>
   </g>
   <g id="line2d_16">
    <path d="M 87.364545 351.326782 
L 87.383452 349.172756 
L 87.616698 348.095743 
L 87.616738 347.01873 
L 98.061539 344.864703 
L 138.44025 342.710677 
L 139.106828 340.556651 
L 140.505057 338.402625 
L 140.977041 336.248599 
L 144.390166 334.094572 
L 144.648063 331.940546 
L 145.2655 330.863533 
L 145.265568 329.78652 
L 145.96699 327.632494 
L 146.093853 325.478468 
L 146.520828 323.324442 
L 146.634379 321.170415 
L 146.909043 319.016389 
L 148.53243 316.862363 
L 149.076911 314.708337 
L 149.977558 312.554311 
L 150.33289 308.246258 
L 151.436376 306.092232 
L 151.569516 303.938206 
L 152.069649 301.78418 
L 152.116955 299.630154 
L 152.285769 297.476127 
L 152.288044 295.322101 
L 152.517779 293.168075 
L 152.720729 280.243918 
L 153.091421 278.089892 
L 153.164539 271.627813 
L 153.514413 269.473787 
L 153.93846 263.011709 
L 154.399198 254.395604 
L 154.574364 252.241578 
L 154.59722 250.087552 
L 154.859775 247.933525 
L 155.078137 243.625473 
L 155.494924 241.471447 
L 155.694732 235.009368 
L 155.896275 232.855342 
L 155.91635 230.701316 
L 156.07259 228.54729 
L 156.107677 226.393264 
L 156.362347 225.316251 
L 156.422181 222.085211 
L 156.531898 219.931185 
L 156.960735 217.777159 
L 157.293942 213.469107 
L 157.322494 209.161054 
L 157.47811 207.007028 
L 157.510374 204.853002 
L 158.122992 198.390923 
L 158.416354 196.236897 
L 158.440384 194.082871 
L 158.733679 189.774819 
L 158.759452 187.620792 
L 159.219569 185.466766 
L 159.733297 181.158714 
L 159.837492 174.696635 
L 159.860092 170.388583 
L 160.225465 168.234557 
L 160.458599 161.772478 
L 160.462571 159.618452 
L 160.900535 157.464426 
L 160.982428 151.002347 
L 161.637591 148.848321 
L 161.640771 146.694295 
L 165.689012 144.540269 
L 166.573788 142.386243 
L 166.889722 140.232217 
L 172.30793 138.07819 
L 172.46718 133.770138 
L 173.159071 127.308059 
L 175.048193 125.154033 
L 175.835991 123.000007 
L 176.096196 120.845981 
L 176.828749 118.691955 
L 177.254225 116.537929 
L 179.467936 114.383902 
L 180.41644 112.229876 
L 184.208997 110.07585 
L 186.8231 107.921824 
L 187.015993 105.767798 
L 188.458554 101.459745 
L 190.185714 99.305719 
L 191.301945 97.151693 
L 191.554991 94.997667 
L 192.184131 92.843641 
L 192.276707 88.535588 
L 192.90736 86.381562 
L 192.940806 84.227536 
L 194.396031 82.07351 
L 194.729131 73.457405 
L 195.348396 71.303379 
L 195.37036 69.149353 
L 195.517442 66.995327 
L 195.579939 62.687274 
L 196.633649 60.533248 
L 196.791103 58.379222 
L 197.533457 54.071169 
L 198.960511 51.917143 
L 209.87043 49.763117 
L 678.655441 47.609091 
L 678.655441 47.609091 
" clip-path="url(#pa95339d8f8)" style="fill: none; stroke: #8db8ff; stroke-width: 1.5; stroke-linecap: square"/>
   </g>
   <g id="line2d_17">
    <path d="M 88.212217 350.343662 
L 88.214647 347.206516 
L 88.241269 344.069371 
L 88.242842 340.932225 
L 88.24964 337.795079 
L 88.24968 334.657933 
L 88.287002 331.520787 
L 88.335805 329.952214 
L 88.335846 328.383642 
L 106.682319 325.246496 
L 109.936862 322.10935 
L 131.156393 318.972204 
L 156.308308 317.403631 
L 162.154526 315.835058 
L 162.395156 312.697912 
L 162.534891 311.12934 
L 162.583998 307.992194 
L 162.672088 304.855048 
L 162.680741 301.717902 
L 162.682031 298.580756 
L 162.727007 295.44361 
L 162.761433 292.306465 
L 162.783317 290.737892 
L 162.833727 287.600746 
L 162.838668 284.4636 
L 162.858435 281.326454 
L 162.858892 279.757881 
L 162.876685 276.620736 
L 162.898367 273.48359 
L 162.915782 270.346444 
L 162.917692 267.209298 
L 162.928114 264.072152 
L 162.958848 260.935006 
L 162.96113 257.797861 
L 162.980314 254.660715 
L 162.99279 251.523569 
L 163.000173 248.386423 
L 163.012201 245.249277 
L 163.015549 242.112132 
L 163.016386 238.974986 
L 163.034504 235.83784 
L 163.035192 232.700694 
L 163.045007 229.563548 
L 163.05422 226.426402 
L 163.056812 223.289257 
L 163.058861 221.720684 
L 163.060843 218.583538 
L 163.064272 215.446392 
L 163.070442 212.309246 
L 163.072804 209.1721 
L 163.081174 206.034955 
L 163.084752 202.897809 
L 163.088866 199.760663 
L 163.089861 196.623517 
L 163.089936 193.486371 
L 163.091836 190.349226 
L 163.101668 187.21208 
L 163.102343 184.074934 
L 163.105697 180.937788 
L 163.108823 177.800642 
L 163.110268 174.663497 
L 163.113319 171.526351 
L 163.120015 168.389205 
L 163.122458 165.252059 
L 163.126946 163.683486 
L 163.127027 162.114913 
L 163.130451 158.977767 
L 163.135259 155.840622 
L 163.145233 152.703476 
L 163.145922 149.56633 
L 163.151174 146.429184 
L 163.15278 143.292038 
L 163.155216 140.154893 
L 163.157197 137.017747 
L 163.160086 133.880601 
L 163.163974 130.743455 
L 163.164963 127.606309 
L 163.172585 124.469163 
L 163.175179 121.332018 
L 163.175933 118.194872 
L 163.175935 115.057726 
L 163.178369 113.489153 
L 163.185154 110.352007 
L 163.18699 107.214861 
L 163.190649 104.077716 
L 163.193619 100.94057 
L 163.195217 99.371997 
L 163.199329 96.234851 
L 163.205269 93.097705 
L 163.207719 89.960559 
L 163.209545 86.823414 
L 163.213194 83.686268 
L 163.2132 80.549122 
L 163.231339 77.411976 
L 163.238428 74.27483 
L 163.243691 71.137685 
L 163.243988 68.000539 
L 163.244609 64.863393 
L 163.245676 61.726247 
L 163.25649 58.589101 
L 163.269679 55.451955 
L 163.299723 52.31481 
L 163.32375 49.177664 
L 176.511455 47.609091 
" clip-path="url(#pa95339d8f8)" style="fill: none; stroke: #e78c84; stroke-width: 1.5; stroke-linecap: square"/>
   </g>
   <g id="patch_3">
    <path d="M 57.8 367 
L 57.8 32.4 
" style="fill: none; stroke: #000000; stroke-width: 0.8; stroke-linejoin: miter; stroke-linecap: square"/>
   </g>
   <g id="patch_4">
    <path d="M 708.219986 367 
L 708.219986 32.4 
" style="fill: none; stroke: #000000; stroke-width: 0.8; stroke-linejoin: miter; stroke-linecap: square"/>
   </g>
   <g id="patch_5">
    <path d="M 57.8 367 
L 708.219986 367 
" style="fill: none; stroke: #000000; stroke-width: 0.8; stroke-linejoin: miter; stroke-linecap: square"/>
   </g>
   <g id="patch_6">
    <path d="M 57.8 32.4 
L 708.219986 32.4 
" style="fill: none; stroke: #000000; stroke-width: 0.8; stroke-linejoin: miter; stroke-linecap: square"/>
   </g>
   <g id="legend_1">
    <g id="patch_7">
     <path d="M 582.244986 357 
L 694.219986 357 
Q 698.219986 357 698.219986 353 
L 698.219986 266.93125 
Q 698.219986 262.93125 694.219986 262.93125 
L 582.244986 262.93125 
Q 578.244986 262.93125 578.244986 266.93125 
L 578.244986 353 
Q 578.244986 357 582.244986 357 
z
" style="fill: #ffffff; opacity: 0.8; stroke: #cccccc; stroke-linejoin: miter"/>
    </g>
    <g id="line2d_18">
     <path d="M 586.244986 279.128125 
L 606.244986 279.128125 
L 626.244986 279.128125 
" style="fill: none; stroke: #8fd694; stroke-width: 1.5; stroke-linecap: square"/>
    </g>
    <g id="text_16">
     <!-- Train -->
     <g transform="translate(642.244986 286.128125) scale(0.2 -0.2)">
      <use xlink:href="#DejaVuSans-54"/>
      <use xlink:href="#DejaVuSans-72" transform="translate(46.333984 0)"/>
      <use xlink:href="#DejaVuSans-61" transform="translate(87.447266 0)"/>
      <use xlink:href="#DejaVuSans-69" transform="translate(148.726562 0)"/>
      <use xlink:href="#DejaVuSans-6e" transform="translate(176.509766 0)"/>
     </g>
    </g>
    <g id="line2d_19">
     <path d="M 586.244986 308.484375 
L 606.244986 308.484375 
L 626.244986 308.484375 
" style="fill: none; stroke: #8db8ff; stroke-width: 1.5; stroke-linecap: square"/>
    </g>
    <g id="text_17">
     <!-- Val -->
     <g transform="translate(642.244986 315.484375) scale(0.2 -0.2)">
      <defs>
       <path id="DejaVuSans-56" d="M 1831 0 
L 50 4666 
L 709 4666 
L 2188 738 
L 3669 4666 
L 4325 4666 
L 2547 0 
L 1831 0 
z
" transform="scale(0.015625)"/>
       <path id="DejaVuSans-6c" d="M 603 4863 
L 1178 4863 
L 1178 0 
L 603 0 
L 603 4863 
z
" transform="scale(0.015625)"/>
      </defs>
      <use xlink:href="#DejaVuSans-56"/>
      <use xlink:href="#DejaVuSans-61" transform="translate(60.658203 0)"/>
      <use xlink:href="#DejaVuSans-6c" transform="translate(121.9375 0)"/>
     </g>
    </g>
    <g id="line2d_20">
     <path d="M 586.244986 337.840625 
L 606.244986 337.840625 
L 626.244986 337.840625 
" style="fill: none; stroke: #e78c84; stroke-width: 1.5; stroke-linecap: square"/>
    </g>
    <g id="text_18">
     <!-- Test -->
     <g transform="translate(642.244986 344.840625) scale(0.2 -0.2)">
      <defs>
       <path id="DejaVuSans-73" d="M 2834 3397 
L 2834 2853 
Q 2591 2978 2328 3040 
Q 2066 3103 1784 3103 
Q 1356 3103 1142 2972 
Q 928 2841 928 2578 
Q 928 2378 1081 2264 
Q 1234 2150 1697 2047 
L 1894 2003 
Q 2506 1872 2764 1633 
Q 3022 1394 3022 966 
Q 3022 478 2636 193 
Q 2250 -91 1575 -91 
Q 1294 -91 989 -36 
Q 684 19 347 128 
L 347 722 
Q 666 556 975 473 
Q 1284 391 1588 391 
Q 1994 391 2212 530 
Q 2431 669 2431 922 
Q 2431 1156 2273 1281 
Q 2116 1406 1581 1522 
L 1381 1569 
Q 847 1681 609 1914 
Q 372 2147 372 2553 
Q 372 3047 722 3315 
Q 1072 3584 1716 3584 
Q 2034 3584 2315 3537 
Q 2597 3491 2834 3397 
z
" transform="scale(0.015625)"/>
      </defs>
      <use xlink:href="#DejaVuSans-54"/>
      <use xlink:href="#DejaVuSans-65" transform="translate(44.083984 0)"/>
      <use xlink:href="#DejaVuSans-73" transform="translate(105.607422 0)"/>
      <use xlink:href="#DejaVuSans-74" transform="translate(157.707031 0)"/>
     </g>
    </g>
   </g>
  </g>
 </g>
 <defs>
  <clipPath id="pa95339d8f8">
   <rect x="57.8" y="32.4" width="650.419986" height="334.6"/>
  </clipPath>
 </defs>
</svg>
